<?xml version="1.0" encoding="utf-8"?>
<!-- Generator: Adobe Illustrator 15.0.2, SVG Export Plug-In . SVG Version: 6.00 Build 0)  -->
<!DOCTYPE svg PUBLIC "-//W3C//DTD SVG 1.1//EN" "http://www.w3.org/Graphics/SVG/1.1/DTD/svg11.dtd">
<svg version="1.1" id="Layer_1" xmlns="http://www.w3.org/2000/svg" xmlns:xlink="http://www.w3.org/1999/xlink" x="0px" y="0px"
	 width="704.012px" height="265px" viewBox="0 0 704.012 265" enable-background="new 0 0 704.012 265" xml:space="preserve">
<g id="Layer_3">
	<rect fill="#524763" width="262" height="265"/>
</g>
<g>
	<path fill="#82D8D8" d="M238,24v216H25V24H238 M250,12h-12.202H24.183H12v11.707v216.666V253h12.183h213.615H250v-12.627V23.707V12
		L250,12z"/>
</g>
<polygon fill="#FFFFFF" points="113,173 113,75.271 113,69 106.093,69 95.42,69 85,69 85,73.82 85,75.271 85,179.332 85,186.643 
	85,189.598 85,194 95.42,194 106.627,194 133.842,194 140,194 140,186.643 140,179.871 140,173 133.842,173 "/>
<g>
	<polygon fill="#82D8D8" points="194.637,106 180,106 180,95.71 180,91 178.079,91 176.564,91 167.279,91 162.87,91 156,91 
		156,95.71 156,106 146.849,106 140,106 140,115.096 140,122.238 140,130 146.849,130 156,130 156,142.67 156,145 162.87,145 
		167.279,145 176.564,145 178.079,145 180,145 180,142.67 180,130 194.637,130 195,130 195,122.238 195,115.096 195,106 	"/>
	
		<animate  fill="freeze" id="in2" values="1;0.5;1;" restart="always" calcMode="linear" dur="2s" begin="mouseover" additive="replace" attributeName="opacity" accumulate="none" to="1" attributeType="CSS" end="mouseout" repeatCount="indefinite">
		</animate>
	
		<animate  fill="freeze" id="out2" restart="always" calcMode="linear" dur="2s" begin="in2.endEvent" additive="replace" attributeName="opacity" accumulate="none" to="1" repeatCount="1">
		</animate>
</g>
<polygon fill="#FFFFFF" points="511.688,49 504,49 504,56.644 504,128.867 484,115.27 484,56.644 484,49 477.686,49 468.814,49 
	461,49 461,56.644 461,123.265 461,125.836 464.261,127.438 508.2,158.252 510.277,161 512.133,161 520.561,161 524,161 
	524,152.486 524,56.644 524,49 520.561,49 "/>
<polygon fill="#FFFFFF" points="357,138 357,56.644 357,49 355.267,49 346.395,49 339,49 339,55.438 339,56.644 339,143.164 
	339,149.24 339,151.699 339,158 346.395,158 355.712,158 378.34,158 382,158 382,149.24 382,143.609 382,138 378.34,138 "/>
<polygon fill="#FFFFFF" points="625,138 625,56.644 625,49 619.916,49 611.044,49 604,49 604,55.438 604,56.644 604,143.164 
	604,149.24 604,151.699 604,158 611.044,158 620.361,158 642.988,158 647,158 647,149.24 647,143.609 647,138 642.988,138 "/>
<polygon fill="#FFFFFF" points="543,49 543,158 587,158 587,138 560,138 560,108 580,108 580,91 560,91 560,71 587,71 587,49 "/>
<polygon fill="#FFFFFF" points="415.58,49 406.26,49 402,49 402,56.644 402,65.072 402,104.121 402,112.997 402,143.164 402,149.24 
	402,158 406.26,158 415.58,158 441.451,158 447,158 447,149.24 447,143.609 447,138 441.451,138 421,138 421,108 434.96,108 
	441,108 441,100.457 441,94.824 441,91 434.96,91 421,91 421,71 441.451,71 444.797,71 447,71 447,65.52 447,56.644 447,49 
	441.451,49 "/>
<path fill="#82D8D8" d="M672.924,77.921V98.32c0,1.641-0.252,3.164-0.748,4.578c-0.494,1.406-1.248,2.629-2.264,3.661
	c-1.014,1.036-2.281,1.851-3.807,2.439c-1.526,0.589-3.312,0.886-5.371,0.886c-1.939,0-3.652-0.277-5.146-0.832
	c-1.485-0.552-2.728-1.342-3.729-2.363c-1.002-1.018-1.762-2.243-2.275-3.672c-0.52-1.436-0.777-3.027-0.777-4.779V77.921h6.664
	V97.74c0,1.164,0.117,2.162,0.345,2.988c0.231,0.824,0.572,1.502,1.026,2.026c0.453,0.526,1.019,0.907,1.69,1.151
	c0.677,0.246,1.468,0.37,2.376,0.37c1.883,0,3.244-0.546,4.084-1.642c0.838-1.092,1.264-2.738,1.264-4.939V77.921H672.924z"/>
<path fill="#82D8D8" d="M704.012,87.754c0,1.379-0.209,2.703-0.629,3.969c-0.413,1.265-1.1,2.379-2.059,3.342
	c-0.955,0.964-2.213,1.734-3.771,2.308c-1.562,0.578-3.491,0.866-5.792,0.866h-1.53v11.213h-6.688v-31.53h8.758
	c2.023,0,3.777,0.224,5.253,0.677c1.475,0.455,2.688,1.101,3.645,1.939c0.955,0.845,1.665,1.874,2.125,3.088
	C703.779,84.838,704.012,86.217,704.012,87.754z M690.23,92.758h1.314c1.885,0,3.302-0.373,4.259-1.12
	c0.957-0.75,1.438-1.964,1.438-3.647c0-1.563-0.433-2.723-1.289-3.469c-0.854-0.75-2.195-1.126-4.021-1.126h-1.702L690.23,92.758
	L690.23,92.758z"/>
<path fill="#FFFFFF" d="M396.783,215.885h-6.851v-26.676h-8.132v-5.715h23.089v5.715h-8.106V215.885z"/>
<path fill="#FFFFFF" d="M440.228,183.494v20.954c0,1.688-0.257,3.251-0.764,4.7c-0.511,1.447-1.286,2.707-2.327,3.769
	c-1.042,1.063-2.346,1.901-3.909,2.503c-1.568,0.607-3.403,0.912-5.519,0.912c-1.998,0-3.754-0.289-5.283-0.857
	c-1.531-0.565-2.807-1.375-3.837-2.424c-1.028-1.047-1.804-2.309-2.337-3.777c-0.529-1.472-0.799-3.104-0.799-4.907v-20.871h6.852
	v20.36c0,1.196,0.116,2.218,0.353,3.068c0.236,0.85,0.587,1.543,1.055,2.082c0.463,0.539,1.044,0.936,1.734,1.184
	c0.696,0.256,1.508,0.379,2.438,0.379c1.938,0,3.336-0.562,4.201-1.684c0.863-1.123,1.295-2.813,1.295-5.076v-20.313
	L440.228,183.494L440.228,183.494z"/>
<path fill="#FFFFFF" d="M465.773,215.885h-6.849v-26.676h-8.135v-5.715h23.09v5.715h-8.106V215.885z"/>
<path fill="#FFFFFF" d="M502.961,206.891c0,1.448-0.247,2.75-0.742,3.91c-0.494,1.16-1.221,2.15-2.171,2.971
	c-0.952,0.82-2.118,1.451-3.503,1.894c-1.381,0.442-2.965,0.668-4.752,0.668c-1.565,0-3.077-0.161-4.532-0.49
	c-1.454-0.325-2.801-0.813-4.045-1.463V208c0.71,0.339,1.431,0.666,2.15,0.98c0.725,0.319,1.46,0.604,2.207,0.857
	c0.749,0.249,1.491,0.449,2.234,0.598c0.747,0.146,1.49,0.217,2.228,0.217c0.756,0,1.399-0.084,1.94-0.25
	c0.537-0.174,0.978-0.405,1.308-0.711c0.333-0.301,0.576-0.666,0.729-1.084c0.156-0.422,0.233-0.885,0.233-1.385
	c0-0.607-0.126-1.142-0.386-1.609c-0.263-0.465-0.618-0.896-1.086-1.307c-0.466-0.404-1.027-0.802-1.685-1.187
	c-0.657-0.386-1.395-0.789-2.205-1.218c-0.68-0.354-1.438-0.782-2.283-1.282c-0.842-0.505-1.635-1.13-2.382-1.873
	c-0.745-0.748-1.372-1.646-1.872-2.705c-0.502-1.056-0.754-2.323-0.754-3.803c0-1.44,0.242-2.742,0.722-3.89
	c0.479-1.145,1.164-2.106,2.049-2.901c0.888-0.79,1.965-1.39,3.227-1.806c1.26-0.414,2.676-0.621,4.242-0.621
	c0.783,0,1.548,0.056,2.295,0.156c0.742,0.104,1.485,0.252,2.217,0.441c0.729,0.195,1.464,0.433,2.204,0.71
	c0.733,0.28,1.497,0.606,2.282,0.976l-2.217,5.34c-0.664-0.309-1.287-0.582-1.861-0.816c-0.578-0.237-1.14-0.438-1.685-0.604
	c-0.548-0.158-1.083-0.279-1.606-0.363c-0.527-0.077-1.055-0.12-1.584-0.12c-1.154,0-2.037,0.309-2.649,0.917
	c-0.615,0.617-0.919,1.435-0.919,2.447c0,0.549,0.095,1.031,0.275,1.453c0.188,0.422,0.482,0.815,0.889,1.187
	c0.404,0.371,0.931,0.748,1.572,1.132c0.644,0.382,1.422,0.816,2.338,1.309c1.105,0.588,2.127,1.192,3.058,1.805
	c0.93,0.607,1.732,1.291,2.405,2.037c0.672,0.748,1.191,1.59,1.562,2.537C502.775,204.514,502.961,205.617,502.961,206.891z"/>
<g>
	<path fill="#FFFFFF" d="M524.521,208.639l15.067-6.586l-15.067-7.428v-5.627l22.311,11.625v3.35l-22.311,10.267V208.639z"/>
</g>
<g>
	<path fill="#FFFFFF" d="M361.715,214.238l-22.308-10.266v-3.351l22.308-11.625v5.627l-15.065,7.428l15.065,6.587V214.238z"/>
</g>
</svg>
